<svg width="553" height="167" viewBox="0 0 553 167" fill="none" xmlns="http://www.w3.org/2000/svg">
<path d="M69.4617 79.3516L82.4667 1.01562H103.581L98.6847 30.8506H98.9907C100.062 28.8616 101.477 27.0384 103.236 25.3809C104.996 23.6979 107.061 22.3591 109.433 21.3646C111.804 20.3446 114.444 19.8346 117.351 19.8346C121.227 19.8346 124.733 20.8674 127.869 22.9329C131.031 24.9984 133.339 28.2496 134.793 32.6866C136.272 37.1236 136.425 42.8866 135.252 49.9756C134.13 56.7586 132.141 62.3814 129.285 66.8439C126.429 71.3064 123.063 74.6341 119.187 76.8271C115.311 79.0201 111.282 80.1166 107.1 80.1166C104.346 80.1166 101.961 79.6704 99.9469 78.7779C97.9579 77.8599 96.3387 76.6231 95.0892 75.0676C93.8652 73.4866 93.0237 71.7016 92.5647 69.7126H91.9527L90.4227 79.3516H69.4617ZM95.0127 49.9756C94.5537 52.8316 94.5282 55.3051 94.9362 57.3961C95.3442 59.4616 96.1474 61.0681 97.3459 62.2156C98.5444 63.3376 100.113 63.8986 102.051 63.8986C103.989 63.8986 105.735 63.3504 107.291 62.2539C108.846 61.1319 110.16 59.5381 111.231 57.4726C112.302 55.3816 113.067 52.8826 113.526 49.9756C113.985 47.0686 114.023 44.5824 113.64 42.5169C113.258 40.4259 112.48 38.8321 111.307 37.7356C110.134 36.6136 108.579 36.0526 106.641 36.0526C104.703 36.0526 102.943 36.6136 101.362 37.7356C99.7812 38.8321 98.4424 40.4259 97.3459 42.5169C96.2494 44.5824 95.4717 47.0686 95.0127 49.9756Z" fill="white"/>
<path d="M167.343 80.4226C160.968 80.4226 155.715 79.1604 151.584 76.6359C147.479 74.0859 144.597 70.5414 142.94 66.0024C141.282 61.4379 140.951 56.1466 141.945 50.1286C142.94 44.1106 145.018 38.8321 148.18 34.2931C151.342 29.7286 155.409 26.1841 160.382 23.6596C165.354 21.1096 171.041 19.8346 177.441 19.8346C183.791 19.8346 189.018 21.1096 193.124 23.6596C197.255 26.1841 200.149 29.7286 201.807 34.2931C203.49 38.8321 203.834 44.1106 202.839 50.1286C201.845 56.1466 199.754 61.4379 196.566 66.0024C193.379 70.5414 189.299 74.0859 184.326 76.6359C179.379 79.1604 173.718 80.4226 167.343 80.4226ZM169.944 64.8166C171.78 64.8166 173.451 64.2174 174.955 63.0189C176.485 61.8204 177.786 60.1119 178.857 57.8934C179.953 55.6749 180.756 53.0356 181.266 49.9756C181.776 46.8901 181.853 44.2509 181.496 42.0579C181.139 39.8394 180.399 38.1309 179.277 36.9324C178.155 35.7339 176.676 35.1346 174.84 35.1346C173.004 35.1346 171.321 35.7339 169.791 36.9324C168.261 38.1309 166.961 39.8394 165.89 42.0579C164.819 44.2509 164.028 46.8901 163.518 49.9756C163.008 53.0356 162.919 55.6749 163.251 57.8934C163.608 60.1119 164.347 61.8204 165.469 63.0189C166.617 64.2174 168.108 64.8166 169.944 64.8166Z" fill="white"/>
<path d="M234.663 80.4226C228.288 80.4226 223.035 79.1604 218.904 76.6359C214.799 74.0859 211.917 70.5414 210.26 66.0024C208.602 61.4379 208.271 56.1466 209.265 50.1286C210.26 44.1106 212.338 38.8321 215.5 34.2931C218.662 29.7286 222.729 26.1841 227.702 23.6596C232.674 21.1096 238.361 19.8346 244.761 19.8346C251.111 19.8346 256.338 21.1096 260.444 23.6596C264.575 26.1841 267.469 29.7286 269.127 34.2931C270.81 38.8321 271.154 44.1106 270.159 50.1286C269.165 56.1466 267.074 61.4379 263.886 66.0024C260.699 70.5414 256.619 74.0859 251.646 76.6359C246.699 79.1604 241.038 80.4226 234.663 80.4226ZM237.264 64.8166C239.1 64.8166 240.771 64.2174 242.275 63.0189C243.805 61.8204 245.106 60.1119 246.177 57.8934C247.273 55.6749 248.076 53.0356 248.586 49.9756C249.096 46.8901 249.173 44.2509 248.816 42.0579C248.459 39.8394 247.719 38.1309 246.597 36.9324C245.475 35.7339 243.996 35.1346 242.16 35.1346C240.324 35.1346 238.641 35.7339 237.111 36.9324C235.581 38.1309 234.281 39.8394 233.21 42.0579C232.139 44.2509 231.348 46.8901 230.838 49.9756C230.328 53.0356 230.239 55.6749 230.571 57.8934C230.928 60.1119 231.667 61.8204 232.789 63.0189C233.937 64.2174 235.428 64.8166 237.264 64.8166Z" fill="white"/>
<path d="M318.66 20.5996L316.059 35.8996H277.35L279.951 20.5996H318.66ZM289.743 6.52362H310.857L301.907 60.4561C301.779 61.2721 301.805 61.9606 301.983 62.5216C302.162 63.0571 302.519 63.4651 303.054 63.7456C303.615 64.0006 304.355 64.1281 305.273 64.1281C305.885 64.1281 306.637 64.0516 307.53 63.8986C308.422 63.7201 309.098 63.5926 309.557 63.5161L310.169 78.3571C309.098 78.6631 307.657 79.0074 305.847 79.3899C304.062 79.7979 301.983 80.0656 299.612 80.1931C294.665 80.4226 290.636 79.8999 287.525 78.6249C284.439 77.3499 282.297 75.3609 281.099 72.6579C279.926 69.9294 279.722 66.5251 280.487 62.4451L289.743 6.52362Z" fill="white"/>
<path d="M256.85 145.517C250.475 145.517 245.222 144.255 241.091 141.73C236.96 139.18 234.066 135.636 232.408 131.097C230.751 126.532 230.432 121.241 231.452 115.223C232.421 109.205 234.487 103.927 237.649 99.3875C240.836 94.823 244.916 91.2785 249.889 88.754C254.887 86.204 260.573 84.929 266.948 84.929C272.711 84.929 277.518 85.9745 281.368 88.0655C285.244 90.131 288.011 93.0635 289.669 96.863C291.352 100.637 291.785 105.074 290.969 110.174H271.385C271.615 107.114 271.117 104.768 269.893 103.136C268.695 101.504 266.948 100.688 264.653 100.688C262.766 100.688 261.032 101.224 259.451 102.295C257.896 103.34 256.557 104.934 255.435 107.076C254.338 109.192 253.535 111.857 253.025 115.07C252.515 118.283 252.451 120.96 252.834 123.102C253.242 125.219 254.032 126.813 255.205 127.884C256.404 128.929 257.921 129.452 259.757 129.452C261.338 129.452 262.792 129.095 264.118 128.381C265.469 127.641 266.629 126.57 267.598 125.168C268.593 123.74 269.345 122.006 269.855 119.966H289.439C288.47 125.168 286.519 129.681 283.587 133.506C280.654 137.331 276.919 140.289 272.38 142.38C267.841 144.471 262.664 145.517 256.85 145.517Z" fill="white"/>
<path d="M310.237 145.364C306.514 145.364 303.314 144.752 300.637 143.528C297.985 142.278 296.047 140.391 294.823 137.867C293.624 135.317 293.356 132.104 294.019 128.228C294.555 125.015 295.562 122.274 297.041 120.004C298.52 117.735 300.356 115.873 302.549 114.42C304.742 112.966 307.203 111.857 309.931 111.092C312.685 110.302 315.592 109.791 318.652 109.562C321.967 109.307 324.658 108.988 326.723 108.606C328.789 108.223 330.331 107.7 331.351 107.037C332.371 106.374 332.983 105.482 333.187 104.36V104.207C333.417 102.677 333.009 101.504 331.963 100.688C330.943 99.872 329.515 99.464 327.679 99.464C325.69 99.464 323.969 99.8975 322.516 100.765C321.088 101.632 320.106 102.983 319.57 104.819H300.139C300.955 101.249 302.626 97.9595 305.15 94.9505C307.7 91.916 311.079 89.4935 315.286 87.683C319.519 85.847 324.568 84.929 330.433 84.929C334.615 84.929 338.287 85.4263 341.449 86.4208C344.611 87.3898 347.225 88.754 349.291 90.5135C351.382 92.2475 352.848 94.2875 353.689 96.6335C354.556 98.954 354.76 101.478 354.301 104.207L347.569 144.446H327.832L329.209 136.184H328.75C327.22 138.377 325.499 140.149 323.587 141.501C321.7 142.852 319.634 143.834 317.39 144.446C315.172 145.058 312.787 145.364 310.237 145.364ZM319.417 132.053C320.998 132.053 322.554 131.721 324.084 131.058C325.614 130.395 326.927 129.439 328.024 128.19C329.12 126.94 329.821 125.423 330.127 123.638L330.892 118.742C330.331 118.971 329.707 119.188 329.018 119.392C328.355 119.571 327.654 119.749 326.914 119.928C326.2 120.106 325.435 120.272 324.619 120.425C323.829 120.578 323.013 120.731 322.171 120.884C320.488 121.139 319.073 121.56 317.926 122.146C316.778 122.707 315.886 123.408 315.248 124.25C314.611 125.066 314.215 125.984 314.062 127.004C313.833 128.61 314.203 129.86 315.172 130.752C316.166 131.619 317.581 132.053 319.417 132.053Z" fill="white"/>
<path d="M357.811 144.446L367.603 85.694H387.646L385.81 96.863H386.422C388.232 93.191 390.795 90.284 394.11 88.142C397.425 86 401.135 84.929 405.241 84.929C409.346 84.929 412.712 86.0255 415.339 88.2185C417.965 90.386 419.291 93.2675 419.317 96.863H419.929C421.51 93.2675 424.098 90.386 427.694 88.2185C431.289 86.0255 435.28 84.929 439.666 84.929C445.25 84.929 449.496 86.7395 452.403 90.3605C455.336 93.9815 456.292 98.801 455.272 104.819L448.693 144.446H427.579L433.393 110.174C433.75 107.599 433.393 105.584 432.322 104.13C431.251 102.651 429.619 101.912 427.426 101.912C425.258 101.912 423.422 102.651 421.918 104.13C420.439 105.584 419.521 107.599 419.164 110.174L413.35 144.446H393.154L398.968 110.174C399.325 107.599 398.968 105.584 397.897 104.13C396.826 102.651 395.194 101.912 393.001 101.912C391.573 101.912 390.272 102.243 389.099 102.906C387.952 103.569 386.996 104.526 386.231 105.775C385.491 106.999 384.994 108.466 384.739 110.174L378.925 144.446H357.811Z" fill="white"/>
<path d="M455.434 166.478L468.975 85.694H489.936L488.253 95.945H488.712C489.783 93.956 491.185 92.1328 492.919 90.4753C494.679 88.7923 496.744 87.4535 499.116 86.459C501.513 85.439 504.165 84.929 507.072 84.929C510.948 84.929 514.454 85.9618 517.591 88.0273C520.727 90.0928 523.035 93.344 524.514 97.781C525.993 102.218 526.146 107.981 524.973 115.07C523.851 121.853 521.849 127.476 518.968 131.938C516.112 136.401 512.746 139.728 508.87 141.921C505.019 144.114 501.003 145.211 496.821 145.211C494.067 145.211 491.683 144.765 489.668 143.872C487.654 142.954 486.034 141.717 484.81 140.162C483.586 138.581 482.745 136.796 482.286 134.807H481.827L476.625 166.478H455.434ZM484.734 115.07C484.275 117.926 484.237 120.399 484.619 122.49C485.027 124.556 485.83 126.162 487.029 127.31C488.253 128.432 489.834 128.993 491.772 128.993C493.71 128.993 495.444 128.445 496.974 127.348C498.504 126.226 499.804 124.632 500.875 122.567C501.946 120.476 502.737 117.977 503.247 115.07C503.706 112.163 503.744 109.677 503.362 107.611C502.979 105.52 502.201 103.926 501.028 102.83C499.855 101.708 498.3 101.147 496.362 101.147C494.424 101.147 492.652 101.708 491.045 102.83C489.464 103.926 488.125 105.52 487.029 107.611C485.958 109.677 485.193 112.163 484.734 115.07Z" fill="white"/>
<path d="M540.837 145.67C537.854 145.67 535.418 144.637 533.531 142.572C531.67 140.481 530.892 137.943 531.198 134.96C531.504 132.053 532.817 129.567 535.138 127.501C537.484 125.436 540.149 124.403 543.132 124.403C545.963 124.403 548.321 125.436 550.208 127.501C552.121 129.567 552.924 132.053 552.618 134.96C552.414 136.949 551.713 138.759 550.514 140.391C549.341 141.998 547.888 143.286 546.154 144.255C544.445 145.198 542.673 145.67 540.837 145.67Z" fill="white"/>
<path d="M343.179 66.444L348.139 36.2153H352.862L347.903 66.444H343.179ZM329.644 58.9459L330.427 54.2226H354.043L353.261 58.9459H329.644ZM332.552 66.444L337.511 36.2153H342.235L337.275 66.444H332.552ZM331.371 48.4367L332.168 43.7134H355.785L354.987 48.4367H331.371Z" fill="white"/>
<path d="M377.582 50.2374L371.825 50.5916C371.727 50.0996 371.515 49.6568 371.19 49.2632C370.866 48.8598 370.438 48.54 369.906 48.3038C369.385 48.0578 368.76 47.9348 368.032 47.9348C367.058 47.9348 366.236 48.1414 365.567 48.5547C364.898 48.9582 364.563 49.4994 364.563 50.1783C364.563 50.7196 364.78 51.1771 365.213 51.551C365.645 51.925 366.388 52.2251 367.441 52.4514L371.545 53.278C373.749 53.7306 375.392 54.4588 376.475 55.4625C377.557 56.4662 378.098 57.7847 378.098 59.4182C378.098 60.904 377.66 62.2079 376.784 63.3296C375.919 64.4514 374.728 65.3272 373.213 65.9569C371.707 66.5769 369.97 66.8868 368.002 66.8868C365.001 66.8868 362.61 66.262 360.829 65.0123C359.058 63.7527 358.019 62.0406 357.714 59.8758L363.899 59.551C364.086 60.4662 364.539 61.1648 365.257 61.647C365.975 62.1193 366.895 62.3555 368.017 62.3555C369.119 62.3555 370.005 62.1439 370.674 61.7208C371.353 61.2878 371.697 60.7318 371.707 60.0529C371.697 59.4822 371.456 59.0147 370.984 58.6507C370.511 58.2767 369.783 57.9914 368.799 57.7946L364.873 57.0123C362.659 56.5695 361.011 55.802 359.928 54.7097C358.856 53.6175 358.32 52.2251 358.32 50.5326C358.32 49.0763 358.713 47.8216 359.5 46.7688C360.297 45.7159 361.414 44.9041 362.851 44.3333C364.297 43.7626 365.99 43.4772 367.928 43.4772C370.792 43.4772 373.045 44.0824 374.689 45.2927C376.342 46.5031 377.306 48.1513 377.582 50.2374Z" fill="white"/>
<path d="M392.39 66.8868C390.058 66.8868 388.05 66.4145 386.368 65.4698C384.695 64.5154 383.406 63.1673 382.5 61.4256C381.595 59.674 381.142 57.6027 381.142 55.2116C381.142 52.8795 381.595 50.8327 382.5 49.0713C383.406 47.31 384.68 45.9373 386.323 44.9533C387.976 43.9693 389.915 43.4772 392.139 43.4772C393.634 43.4772 395.027 43.7183 396.316 44.2005C397.615 44.6728 398.746 45.3862 399.711 46.3407C400.685 47.2952 401.443 48.4957 401.984 49.9422C402.525 51.3788 402.796 53.0615 402.796 54.9902V56.7171H383.652V52.8204H396.877C396.877 51.9151 396.68 51.1132 396.286 50.4145C395.893 49.7159 395.347 49.1697 394.648 48.7761C393.959 48.3727 393.157 48.171 392.242 48.171C391.288 48.171 390.441 48.3924 389.703 48.8352C388.975 49.2681 388.404 49.8536 387.991 50.5916C387.578 51.3198 387.366 52.1316 387.356 53.0271V56.7318C387.356 57.8536 387.563 58.8229 387.976 59.6396C388.399 60.4563 388.995 61.0861 389.762 61.5289C390.53 61.9717 391.44 62.1931 392.493 62.1931C393.192 62.1931 393.831 62.0947 394.412 61.8979C394.992 61.7011 395.489 61.4059 395.903 61.0123C396.316 60.6187 396.631 60.1365 396.847 59.5658L402.663 59.9496C402.367 61.3468 401.762 62.567 400.847 63.6101C399.942 64.6433 398.771 65.4502 397.334 66.0307C395.907 66.6015 394.259 66.8868 392.39 66.8868Z" fill="white"/>
<path d="M412.596 59.92L412.611 52.3776H413.526L420.788 43.7725H428.006L418.249 55.1673H416.759L412.596 59.92ZM406.899 66.444V36.2153H413.187V66.444H406.899ZM421.069 66.444L414.397 56.5695L418.589 52.1267L428.434 66.444H421.069Z" fill="white"/>
<path d="M443.15 43.7725V48.4957H429.497V43.7725H443.15ZM432.596 38.3407H438.884V59.4772C438.884 60.0578 438.973 60.5104 439.15 60.8352C439.327 61.15 439.573 61.3714 439.888 61.4994C440.212 61.6273 440.586 61.6913 441.01 61.6913C441.305 61.6913 441.6 61.6667 441.895 61.6175C442.19 61.5584 442.417 61.5141 442.574 61.4846L443.563 66.1636C443.248 66.262 442.805 66.3751 442.235 66.5031C441.664 66.6408 440.97 66.7245 440.153 66.754C438.638 66.813 437.31 66.6113 436.168 66.1488C435.037 65.6863 434.156 64.968 433.526 63.9938C432.896 63.0197 432.586 61.7897 432.596 60.3038V38.3407Z" fill="white"/>
<path d="M453.711 66.8721C452.264 66.8721 450.975 66.6211 449.843 66.1193C448.712 65.6076 447.816 64.8548 447.157 63.861C446.508 62.8573 446.183 61.6076 446.183 60.1119C446.183 58.8524 446.414 57.7946 446.877 56.9385C447.339 56.0824 447.969 55.3936 448.766 54.8721C449.563 54.3505 450.468 53.9569 451.482 53.6913C452.505 53.4256 453.578 53.2386 454.7 53.1304C456.018 52.9926 457.081 52.8647 457.888 52.7466C458.695 52.6187 459.28 52.4317 459.644 52.1857C460.008 51.9397 460.19 51.5756 460.19 51.0935V51.0049C460.19 50.0701 459.895 49.3469 459.305 48.8352C458.724 48.3235 457.898 48.0676 456.825 48.0676C455.693 48.0676 454.793 48.3186 454.124 48.8204C453.455 49.3124 453.012 49.9323 452.795 50.6802L446.98 50.2079C447.275 48.8303 447.856 47.6396 448.722 46.6359C449.588 45.6224 450.704 44.845 452.072 44.3038C453.45 43.7528 455.044 43.4772 456.854 43.4772C458.114 43.4772 459.319 43.6248 460.471 43.9201C461.632 44.2153 462.66 44.6728 463.556 45.2927C464.461 45.9127 465.174 46.7097 465.696 47.6839C466.217 48.6482 466.478 49.8044 466.478 51.1525V66.444H460.515V63.3001H460.338C459.974 64.0086 459.487 64.6334 458.877 65.1746C458.267 65.706 457.533 66.1242 456.677 66.4293C455.821 66.7245 454.832 66.8721 453.711 66.8721ZM455.511 62.5326C456.436 62.5326 457.253 62.3505 457.962 61.9865C458.67 61.6125 459.226 61.1107 459.629 60.4809C460.033 59.8512 460.235 59.1377 460.235 58.3407V55.9348C460.038 56.0627 459.767 56.1808 459.423 56.289C459.088 56.3874 458.709 56.4809 458.286 56.5695C457.863 56.6482 457.44 56.722 457.017 56.7909C456.594 56.8499 456.21 56.904 455.866 56.9532C455.128 57.0615 454.483 57.2337 453.932 57.4699C453.381 57.706 452.953 58.0258 452.648 58.4293C452.343 58.8229 452.19 59.3149 452.19 59.9053C452.19 60.7614 452.5 61.4157 453.12 61.8684C453.75 62.3112 454.547 62.5326 455.511 62.5326Z" fill="white"/>
<path d="M41.1159 0L41.116 49.472C41.116 79.0581 65.1002 103.042 94.6863 103.042L217.968 103.042M12.9226 0L12.9226 50.4078C12.9226 95.0464 49.1094 131.233 93.7481 131.233H217.968" stroke="#FF0032" stroke-width="25.8453" stroke-linejoin="round"/>
</svg>
